<svg width="40" height="40" viewBox="0 0 40 40" fill="none" xmlns="http://www.w3.org/2000/svg">
<g clip-path="url(#clip0)">
<path fill-rule="evenodd" clip-rule="evenodd" d="M21.2875 2.5475C20.8591 2.51587 20.4296 2.50002 20 2.5V0C20.4913 0.000239569 20.9825 0.0185854 21.4725 0.055L21.2875 2.5475ZM26.2975 3.6725C25.4961 3.36326 24.6731 3.11342 23.835 2.925L24.3825 0.485C25.34 0.7 26.2825 0.985 27.1975 1.34L26.2975 3.6725ZM29.7225 5.4475C29.3651 5.20912 28.999 4.98397 28.625 4.7725L29.8575 2.5975C30.7123 3.08184 31.5303 3.62831 32.305 4.2325L30.7675 6.205C30.4286 5.94058 30.08 5.68874 29.7225 5.45V5.4475ZM34.3075 9.9225C33.813 9.21994 33.2673 8.5548 32.675 7.9325L34.485 6.2075C35.16 6.92 35.785 7.6825 36.3525 8.4825L34.3075 9.9225ZM36.1675 13.3025C36.0034 12.9061 35.825 12.5159 35.6325 12.1325L37.865 11.0075C38.3065 11.8852 38.6825 12.7944 38.99 13.7275L36.615 14.51C36.4806 14.1022 36.3314 13.6994 36.1675 13.3025ZM37.4925 19.57C37.4723 18.7108 37.3887 17.8544 37.2425 17.0075L39.705 16.5825C39.8725 17.5475 39.97 18.5275 39.995 19.5075L37.495 19.57H37.4925ZM37.165 23.415C37.2475 22.99 37.315 22.5675 37.3675 22.14L39.85 22.4475C39.7299 23.4229 39.5377 24.388 39.275 25.335L36.865 24.6675C36.98 24.255 37.08 23.8375 37.165 23.415ZM34.785 29.3625C35.245 28.6375 35.65 27.8775 36 27.0925L38.285 28.105C37.885 29.005 37.4225 29.87 36.8975 30.7L34.785 29.3625ZM32.375 32.375C32.68 32.07 32.9725 31.755 33.25 31.43L35.145 33.0625C34.8241 33.4346 34.4897 33.7948 34.1425 34.1425L32.375 32.375Z" fill="#010101"/>
<path fill-rule="evenodd" clip-rule="evenodd" d="M19.9999 2.5C17.1221 2.50021 14.2888 3.21012 11.7509 4.56685C9.21296 5.92358 7.04879 7.88525 5.45007 10.2781C3.85135 12.671 2.86741 15.4212 2.58541 18.2852C2.30342 21.1491 2.73206 24.0384 3.83337 26.6971C4.93469 29.3559 6.67468 31.702 8.89924 33.5276C11.1238 35.3533 13.7643 36.6022 16.5868 37.1637C19.4093 37.7252 22.3267 37.5819 25.0806 36.7466C27.8345 35.9114 30.3399 34.4098 32.3749 32.375L34.1424 34.1425C31.8168 36.4694 28.9531 38.1868 25.805 39.1425C22.657 40.0981 19.3219 40.2626 16.0951 39.6212C12.8683 38.9798 9.84957 37.5525 7.3063 35.4656C4.76303 33.3787 2.77377 30.6967 1.51476 27.6572C0.255762 24.6178 -0.234106 21.3147 0.0885636 18.0407C0.411233 14.7666 1.53648 11.6228 3.3646 8.88755C5.19272 6.15234 7.66727 3.91028 10.569 2.36001C13.4707 0.809738 16.71 -0.00087183 19.9999 7.03646e-07V2.5Z" fill="#010101"/>
<path fill-rule="evenodd" clip-rule="evenodd" d="M18.75 7.5C19.0815 7.5 19.3995 7.6317 19.6339 7.86612C19.8683 8.10054 20 8.41848 20 8.75V21.775L28.12 26.415C28.3995 26.5836 28.6019 26.8548 28.6841 27.1707C28.7662 27.4866 28.7216 27.8221 28.5596 28.1055C28.3977 28.3889 28.1313 28.5977 27.8175 28.6873C27.5036 28.7769 27.1671 28.7402 26.88 28.585L18.13 23.585C17.9387 23.4757 17.7796 23.3178 17.669 23.1273C17.5584 22.9367 17.5001 22.7203 17.5 22.5V8.75C17.5 8.41848 17.6317 8.10054 17.8661 7.86612C18.1005 7.6317 18.4185 7.5 18.75 7.5Z" fill="#010101"/>
</g>
<defs>
<clipPath id="clip0">
<rect width="40" height="40" fill="white"/>
</clipPath>
</defs>
</svg>
