<svg width="40" height="40" viewBox="0 0 40 40" fill="none" xmlns="http://www.w3.org/2000/svg">
<path d="M8.33333 5H11.6667V8.33333H8.33333V16.6667C8.33333 17.5507 7.98214 18.3986 7.35702 19.0237C6.7319 19.6488 5.88405 20 5 20C5.88405 20 6.7319 20.3512 7.35702 20.9763C7.98214 21.6014 8.33333 22.4493 8.33333 23.3333V31.6667H11.6667V35H8.33333C6.55 34.55 5 33.5 5 31.6667V25C5 24.1159 4.64881 23.2681 4.02369 22.643C3.39857 22.0179 2.55072 21.6667 1.66667 21.6667H0V18.3333H1.66667C2.55072 18.3333 3.39857 17.9821 4.02369 17.357C4.64881 16.7319 5 15.8841 5 15V8.33333C5 7.44928 5.35119 6.60143 5.97631 5.97631C6.60143 5.35119 7.44928 5 8.33333 5ZM31.6667 5C32.5507 5 33.3986 5.35119 34.0237 5.97631C34.6488 6.60143 35 7.44928 35 8.33333V15C35 15.8841 35.3512 16.7319 35.9763 17.357C36.6014 17.9821 37.4493 18.3333 38.3333 18.3333H40V21.6667H38.3333C37.4493 21.6667 36.6014 22.0179 35.9763 22.643C35.3512 23.2681 35 24.1159 35 25V31.6667C35 32.5507 34.6488 33.3986 34.0237 34.0237C33.3986 34.6488 32.5507 35 31.6667 35H28.3333V31.6667H31.6667V23.3333C31.6667 22.4493 32.0179 21.6014 32.643 20.9763C33.2681 20.3512 34.1159 20 35 20C34.1159 20 33.2681 19.6488 32.643 19.0237C32.0179 18.3986 31.6667 17.5507 31.6667 16.6667V8.33333H28.3333V5H31.6667ZM20 25C20.442 25 20.8659 25.1756 21.1785 25.4882C21.4911 25.8007 21.6667 26.2246 21.6667 26.6667C21.6667 27.1087 21.4911 27.5326 21.1785 27.8452C20.8659 28.1577 20.442 28.3333 20 28.3333C19.558 28.3333 19.134 28.1577 18.8215 27.8452C18.5089 27.5326 18.3333 27.1087 18.3333 26.6667C18.3333 26.2246 18.5089 25.8007 18.8215 25.4882C19.134 25.1756 19.558 25 20 25ZM13.3333 25C13.7754 25 14.1993 25.1756 14.5118 25.4882C14.8244 25.8007 15 26.2246 15 26.6667C15 27.1087 14.8244 27.5326 14.5118 27.8452C14.1993 28.1577 13.7754 28.3333 13.3333 28.3333C12.8913 28.3333 12.4674 28.1577 12.1548 27.8452C11.8423 27.5326 11.6667 27.1087 11.6667 26.6667C11.6667 26.2246 11.8423 25.8007 12.1548 25.4882C12.4674 25.1756 12.8913 25 13.3333 25ZM26.6667 25C27.1087 25 27.5326 25.1756 27.8452 25.4882C28.1577 25.8007 28.3333 26.2246 28.3333 26.6667C28.3333 27.1087 28.1577 27.5326 27.8452 27.8452C27.5326 28.1577 27.1087 28.3333 26.6667 28.3333C26.2246 28.3333 25.8007 28.1577 25.4882 27.8452C25.1756 27.5326 25 27.1087 25 26.6667C25 26.2246 25.1756 25.8007 25.4882 25.4882C25.8007 25.1756 26.2246 25 26.6667 25Z" fill="#010101"/>
</svg>
