<svg width="40" height="40" viewBox="0 0 40 40" fill="none" xmlns="http://www.w3.org/2000/svg">
<path d="M33.75 5H1.25V30H33.75V5ZM31.25 27.5H3.75V7.5H31.25V27.5Z" fill="#010101"/>
<path d="M36.25 11.25V32.5H7.5V35H38.75V11.25H36.25Z" fill="#010101"/>
<path d="M17.5 23.6296C20.6016 23.6296 23.125 20.8845 23.125 17.5104C23.125 14.1362 20.6016 11.3911 17.5 11.3911C14.3984 11.3911 11.875 14.1361 11.875 17.5104C11.875 20.8846 14.3984 23.6296 17.5 23.6296ZM17.5 13.8911C19.2231 13.8911 20.625 15.5147 20.625 17.5104C20.625 19.506 19.2231 21.1296 17.5 21.1296C15.7769 21.1296 14.375 19.506 14.375 17.5104C14.375 15.5147 15.7769 13.8911 17.5 13.8911Z" fill="#010101"/>
<path d="M6.25 10.625H8.75V24.375H6.25V10.625Z" fill="#010101"/>
<path d="M26.25 10.625H28.75V24.375H26.25V10.625Z" fill="#010101"/>
</svg>
