<svg viewBox="0 0 40 40" xmlns="http://www.w3.org/2000/svg">
<g clip-path="url(#clip0_8:166)">
<path d="M21.3035 28.5844C17.212 26.1448 13.7987 22.7314 11.3588 18.6396L16.5248 13.4736L6.58033 3.52881L2.41285 7.69598C-0.00932741 10.1182 -0.683766 13.8065 0.735301 16.8741C2.6335 20.9782 5.08314 24.755 8.01588 28.0994C12.2221 32.8959 17.324 36.67 23.1801 39.3165C26.1806 40.6724 29.8079 39.9696 32.2059 37.5715L36.4143 33.3631L26.4696 23.4183L21.3035 28.5844ZM30.5485 35.9141C28.8347 37.6279 26.2614 38.1367 24.1453 37.1802C12.1962 31.7802 5.97608 22.6221 2.86268 15.8903C1.85469 13.7107 2.33992 11.0837 4.07026 9.35339L6.58033 6.84363L13.21 13.4736L8.44129 18.2426L8.87068 19.0153C11.6878 24.0861 15.8571 28.2557 20.9282 31.0728L21.7009 31.5021L26.4696 26.7335L33.0995 33.3631L30.5485 35.9141Z"/>
<path fill-rule="evenodd" clip-rule="evenodd" d="M26.8029 14.092C25.4598 12.7862 23.7009 12 22 12V10C24.2991 10 26.5402 11.0472 28.1971 12.658C29.8579 14.2726 31 16.5206 31 19H29C29 17.1461 28.1421 15.394 26.8029 14.092Z"/>
<path fill-rule="evenodd" clip-rule="evenodd" d="M29.5529 11.2795C27.4598 9.24451 24.7009 8 22 8V6C25.2991 6 28.5402 7.50549 30.9471 9.8455C33.3579 12.1893 35 15.4372 35 19H33C33 16.0628 31.6421 13.3107 29.5529 11.2795Z"/>
</g>
<defs>
<clipPath id="clip0_8:166">
<rect width="40" height="40"/>
</clipPath>
</defs>
</svg>
