<svg width="40" height="40" viewBox="0 0 40 40" fill="none" xmlns="http://www.w3.org/2000/svg">
<g clip-path="url(#clip0)">
<path d="M21.3035 28.5845C17.2121 26.1449 13.7987 22.7315 11.3588 18.6397L16.5248 13.4737L6.58034 3.52893L2.41286 7.69611C-0.00932384 10.1183 -0.683762 13.8066 0.735305 16.8743C2.6335 20.9783 5.08314 24.7551 8.01588 28.0996C12.2221 32.896 17.3241 36.6701 23.1801 39.3166C26.1806 40.6725 29.8079 39.9697 32.2059 37.5716L36.4143 33.3632L26.4696 23.4185L21.3035 28.5845ZM30.5485 35.9142C28.8347 37.6281 26.2614 38.1368 24.1453 37.1804C12.1962 31.7803 5.97609 22.6223 2.86269 15.8904C1.85469 13.7108 2.33992 11.0839 4.07027 9.35352L6.58034 6.84375L13.21 13.4737L8.4413 18.2427L8.87068 19.0154C11.6878 24.0862 15.8571 28.2558 20.9282 31.0729L21.7009 31.5023L26.4696 26.7336L33.0995 33.3632L30.5485 35.9142Z" fill="#010101"/>
<path fill-rule="evenodd" clip-rule="evenodd" d="M26.8029 14.092C25.4598 12.7862 23.7009 12 22 12V10C24.2991 10 26.5402 11.0472 28.1971 12.658C29.8579 14.2726 31 16.5206 31 19H29C29 17.1461 28.1421 15.394 26.8029 14.092Z" fill="#010101"/>
<path fill-rule="evenodd" clip-rule="evenodd" d="M29.5529 11.2795C27.4598 9.24451 24.7009 8 22 8V6C25.2991 6 28.5402 7.50549 30.9471 9.8455C33.3579 12.1893 35 15.4372 35 19H33C33 16.0628 31.6421 13.3107 29.5529 11.2795Z" fill="#010101"/>
</g>
<defs>
<clipPath id="clip0">
<rect width="40" height="40" fill="white"/>
</clipPath>
</defs>
</svg>
