<svg width="71" height="71" viewBox="0 0 71 71" fill="none" xmlns="http://www.w3.org/2000/svg">
<g style="mix-blend-mode:luminosity" clip-path="url(#clip0_8:228)">
<path d="M71.0002 59.1667C71.0002 65.675 65.6752 71 59.1669 71H11.8336C5.32524 71 0.000244141 65.675 0.000244141 59.1667V11.8333C0.000244141 5.325 5.32524 0 11.8336 0H59.1669C65.6752 0 71.0002 5.325 71.0002 11.8333V59.1667Z" fill="#563D7C"/>
<path d="M19.2933 15.4297H39.4215C43.1339 15.4297 46.1155 16.2766 48.3545 17.982C50.5936 19.6874 51.7189 22.2513 51.7189 25.6968C51.7189 27.7851 51.2084 29.5717 50.1875 31.0566C49.1666 32.5416 47.7048 33.7017 45.8022 34.5138V34.6299C48.3545 35.1751 50.2919 36.3816 51.6029 38.2495C52.9138 40.1289 53.5751 42.4723 53.5751 45.3031C53.5751 46.9272 53.2851 48.447 52.705 49.8508C52.1249 51.2661 51.22 52.4843 49.9787 53.5052C48.7374 54.5261 47.1596 55.3382 45.2222 55.9415C43.2848 56.5447 40.9877 56.8464 38.3194 56.8464H19.2933V15.4297ZM26.5441 32.7736H38.3774C40.1176 32.7736 41.5678 32.2864 42.7279 31.2887C43.888 30.291 44.4681 28.8756 44.4681 27.0194C44.4681 24.9312 43.946 23.4578 42.9019 22.6109C41.8578 21.764 40.3496 21.3348 38.3774 21.3348H26.5441V32.7736ZM26.5441 50.9297H39.3635C41.5678 50.9297 43.2848 50.3612 44.4913 49.2127C45.7094 48.0758 46.3243 46.4516 46.3243 44.3633C46.3243 42.3099 45.721 40.7437 44.4913 39.63C43.2615 38.5163 41.5678 37.9826 39.3635 37.9826H26.5441V50.9297Z" fill="#F3F2F0"/>
</g>
<defs>
<clipPath id="clip0_8:228">
<rect width="71" height="71" fill="white" transform="translate(0.000244141)"/>
</clipPath>
</defs>
</svg>
