<svg width="71" height="71" viewBox="0 0 71 71" fill="none" xmlns="http://www.w3.org/2000/svg">
<g style="mix-blend-mode:luminosity" clip-path="url(#clip0)">
<path d="M71.0002 59.1667C71.0002 65.6751 65.6752 71.0001 59.1669 71.0001H11.8336C5.32524 71.0001 0.000244141 65.6751 0.000244141 59.1667V11.8334C0.000244141 5.32506 5.32524 6.10352e-05 11.8336 6.10352e-05H59.1669C65.6752 6.10352e-05 71.0002 5.32506 71.0002 11.8334V59.1667Z" fill="#563D7C"/>
<path d="M19.2933 15.4297H39.4215C43.134 15.4297 46.1155 16.2766 48.3545 17.982C50.5936 19.6874 51.7189 22.2513 51.7189 25.6969C51.7189 27.7851 51.2085 29.5717 50.1876 31.0567C49.1666 32.5417 47.7049 33.7018 45.8023 34.5139V34.6299C48.3545 35.1752 50.292 36.3817 51.6029 38.2495C52.9139 40.1289 53.5751 42.4724 53.5751 45.3031C53.5751 46.9273 53.2851 48.4471 52.705 49.8508C52.125 51.2662 51.2201 52.4843 49.9787 53.5052C48.7374 54.5262 47.1596 55.3382 45.2222 55.9415C43.2848 56.5448 40.9877 56.8464 38.3194 56.8464H19.2933V15.4297ZM26.5441 32.7737H38.3774C40.1176 32.7737 41.5678 32.2864 42.7279 31.2887C43.888 30.291 44.4681 28.8757 44.4681 27.0195C44.4681 24.9312 43.946 23.4579 42.9019 22.611C41.8578 21.7641 40.3496 21.3348 38.3774 21.3348H26.5441V32.7737ZM26.5441 50.9297H39.3635C41.5678 50.9297 43.2848 50.3613 44.4913 49.2128C45.7094 48.0758 46.3243 46.4516 46.3243 44.3634C46.3243 42.31 45.7211 40.7438 44.4913 39.6301C43.2616 38.5163 41.5678 37.9827 39.3635 37.9827H26.5441V50.9297Z" fill="white"/>
</g>
<defs>
<clipPath id="clip0">
<rect width="71" height="71" fill="white" transform="translate(0.000244141)"/>
</clipPath>
</defs>
</svg>
