<svg width="76" height="82" viewBox="0 0 76 82" fill="none" xmlns="http://www.w3.org/2000/svg">
<g style="mix-blend-mode:luminosity" clip-path="url(#clip0)">
<path fill-rule="evenodd" clip-rule="evenodd" d="M61.1396 73.1091L67.0998 0.946542L67.1778 0H66.2997H0.87815H0L0.0779928 0.946542L6.03176 73.1208L6.08139 73.7228L6.61772 73.8833L33.3349 81.9H33.7636L60.5535 73.8716L61.0898 73.7111L61.1396 73.1091Z" fill="#1572B6"/>
<path fill-rule="evenodd" clip-rule="evenodd" d="M62.0003 5.11877H33.5888V76.6405L56.6641 69.7254L62.0003 5.11877Z" fill="#35A8DB"/>
<path fill-rule="evenodd" clip-rule="evenodd" d="M33.5572 24.3332L13.5181 33.3538L14.1828 42.2846L33.5572 33.3309L54.1665 23.8072L55.0209 14.6713L33.5572 24.3332Z" fill="#E9E9E8"/>
<path fill-rule="evenodd" clip-rule="evenodd" d="M33.5571 14.6714H33.7056H33.8748H34.0435H34.2127H34.3819H34.5511H34.7203H34.8895H35.0587H35.228H35.3972H35.5664H35.7356H35.9048H36.074H36.2432H36.4119H36.5811H36.7503H36.9195H37.0887H37.2579H37.4272H37.5964H37.7656H37.9348H38.104H38.2727H38.4419H38.6111H38.7803H38.9495H39.1187H39.2879H39.4571H39.6264H39.7956H39.9648H40.134H40.3032H40.4724H40.6416H40.8103H40.9795H41.1487H41.3179H41.4871H41.6563H41.8255H41.9948H42.164H42.3332H42.5024H42.6716H42.8408H43.0095H43.1787H43.3479H43.5171H43.6863H43.8555H44.0247H44.194H44.3632H44.5324H44.7016H44.8708H45.0395H45.2087H45.3779H45.5471H45.7163H45.8855H46.0547H46.2239H46.3932H46.5624H46.7316H46.9008H47.07H47.2392H47.4079H47.5771H47.7463H47.9155H48.0847H48.2539H48.4231H48.5924H48.7616H48.9308H49.1H49.2692H49.4379H49.6071H49.7763H49.9455H50.1147H50.2839H50.4531H50.6223H50.7915H50.9608H51.13H51.2992H51.4684H51.6376H51.8063H51.9755H52.1447H52.3139H52.4831H52.6523H52.8215H52.9907H53.16H53.3292H53.4984H53.6676H53.8368H54.006H54.1747H54.3439H54.5131H54.6823H54.8515H55.0207L54.8515 16.4798L54.6823 18.2879L54.5131 20.096L54.3439 21.9048L54.1747 23.713L54.1663 23.807H54.006H53.8368H53.6676H53.4984H53.3292H53.16H52.9907H52.8215H52.6523H52.4831H52.3139H52.1447H51.9755H51.8063H51.6376H51.4684H51.2992H51.13H50.9608H50.7915H50.6223H50.4531H50.2839H50.1147H49.9455H49.7763H49.6071H49.4379H49.2692H49.1H48.9308H48.7616H48.5924H48.4231H48.2539H48.0847H47.9155H47.7463H47.5771H47.4079H47.2392H47.07H46.9008H46.7316H46.5624H46.3932H46.2239H46.0547H45.8855H45.7163H45.5471H45.3779H45.2087H45.0395H44.8708H44.7016H44.5324H44.3632H44.194H44.0247H43.8555H43.6863H43.5171H43.3479H43.1787H43.0095H42.8408H42.6716H42.5024H42.3332H42.164H41.9948H41.8255H41.6563H41.4871H41.3179H41.1487H40.9795H40.8103H40.6416H40.4724H40.3032H40.134H39.9648H39.7956H39.6264H39.4571H39.2879H39.1187H38.9495H38.7803H38.6111H38.4419H38.2727H38.104H37.9348H37.7656H37.5964H37.4272H37.2579H37.0887H36.9195H36.7503H36.5811H36.4119H36.2432H36.074H35.9048H35.7356H35.5664H35.3972H35.228H35.0587H34.8895H34.7253H34.7203H34.5511H34.3819H34.2127H34.0435H33.8748H33.7056H33.5818H33.5571H33.5364H33.3672H33.198H33.0288H32.8595H32.6903H32.5211H32.3521H32.1829H32.0138H31.8446H31.6754H31.5062H31.3371H31.1679H30.9988H30.8296H30.6604H30.4912H30.3221H30.1529H29.9837H29.8146H29.6454H29.4762H29.307H29.1379H28.9687H28.7995H28.6304H28.4612H28.292H28.1228H27.9537H27.7845H27.6153H27.4462H27.277H27.1078H26.9387H26.7695H26.6004H26.4312H26.262H26.0928H25.9236H25.7545H25.5853H25.4162H25.247H25.0778H24.9087H24.7395H24.5703H24.4011H24.232H24.0628H23.8936H23.7245H23.5553H23.3861H23.2169H23.0478H22.8786H22.7094H22.5403H22.3711H22.2019H22.0327H21.8636H21.6944H21.5252H21.3561H21.1869H21.0178H20.8486H20.6794H20.5102H20.3411H20.1719H20.0027H19.8336H19.6644H19.4952H19.326H19.1569H18.9877H18.8186H18.6494H18.4802H18.311H18.1419H17.9727H17.8035H17.6344H17.4652H17.2961H17.1268H16.9577H16.7885H16.6193H16.4502H16.281H16.1118H15.9427H15.7735H15.6043H15.4352H15.266H15.0968H14.9276H14.7585H14.5893H14.4202H14.251H14.0818H13.9126H13.7434H13.5743H13.4051H13.236H13.0668H12.8976H12.758L12.7285 23.5486L12.5593 22.0688L12.3901 20.5895L12.2209 19.1096L12.0518 17.6302L11.8827 16.1509L11.7135 14.6714H11.8827H12.0518H12.2209H12.3901H12.5593H12.7285H12.8976H13.0668H13.236H13.4051H13.5743H13.7434H13.9126H14.0818H14.251H14.4202H14.5893H14.7585H14.9276H15.0968H15.266H15.4352H15.6043H15.7735H15.9427H16.1118H16.281H16.4502H16.6193H16.7885H16.9577H17.1268H17.2961H17.4652H17.6344H17.8035H17.9727H18.1419H18.311H18.4802H18.6494H18.8186H18.9877H19.1569H19.326H19.4952H19.6644H19.8336H20.0027H20.1719H20.3411H20.5102H20.6794H20.8486H21.0178H21.1869H21.3561H21.5252H21.6944H21.8636H22.0327H22.2019H22.3711H22.5403H22.7094H22.8786H23.0478H23.2169H23.3861H23.5553H23.7245H23.8936H24.0628H24.232H24.4011H24.5703H24.7395H24.9087H25.0778H25.247H25.4162H25.5853H25.7545H25.9236H26.0928H26.262H26.4312H26.6004H26.7695H26.9387H27.1078H27.277H27.4462H27.6153H27.7845H27.9537H28.1228H28.292H28.4612H28.6304H28.7995H28.9687H29.1379H29.307H29.4762H29.6454H29.8146H29.9837H30.1529H30.3221H30.4912H30.6604H30.8296H30.9988H31.1679H31.3371H31.5062H31.6754H31.8446H32.0138H32.1829H32.3521H32.5211H32.6903H32.8595H33.0288H33.198H33.3672H33.5364H33.5571Z" fill="#E9E9E8"/>
<path fill-rule="evenodd" clip-rule="evenodd" d="M13.549 33.355H53.4384L52.7117 42.3875L14.2136 42.2846L13.549 33.355Z" fill="#E9E9E8"/>
<path fill-rule="evenodd" clip-rule="evenodd" d="M14.7953 47.3159L23.5211 47.3197L24.0905 54.7051L33.5571 57.2426L43.2758 54.2945L43.9334 42.2169L52.7371 42.0676L51.1585 61.6852L33.5886 67.229L15.8922 61.5829L14.7953 47.3159Z" fill="#E9E9E8"/>
<path fill-rule="evenodd" clip-rule="evenodd" d="M33.589 33.3163L54.1667 23.8072L55.0211 14.6713L33.589 24.3189V33.3163Z" fill="#FFFFFE"/>
<path fill-rule="evenodd" clip-rule="evenodd" d="M33.589 14.6714H33.706H33.8752H34.0439H34.2131H34.3823H34.5515H34.7207H34.8899H35.0591H35.2283H35.3975H35.5667H35.7359H35.9051H36.0744H36.2436H36.4123H36.5815H36.7507H36.9199H37.0891H37.2583H37.4275H37.5967H37.7659H37.9351H38.1043H38.2731H38.4423H38.6115H38.7807H38.9499H39.1191H39.2883H39.4575H39.6267H39.7959H39.9651H40.1343H40.3035H40.4728H40.642H40.8107H40.9799H41.1491H41.3183H41.4875H41.6567H41.8259H41.9951H42.1643H42.3335H42.5027H42.672H42.8412H43.0099H43.1791H43.3483H43.5175H43.6867H43.8559H44.0251H44.1943H44.3635H44.5327H44.7019H44.8711H45.0399H45.2091H45.3783H45.5475H45.7167H45.8859H46.0551H46.2243H46.3935H46.5627H46.7319H46.9011H47.0704H47.2396H47.4083H47.5775H47.7467H47.9159H48.0851H48.2543H48.4235H48.5927H48.7619H48.9311H49.1003H49.2695H49.4383H49.6075H49.7767H49.9459H50.1151H50.2843H50.4535H50.6227H50.7919H50.9611H51.1303H51.2995H51.4687H51.638H51.8067H51.9759H52.1451H52.3143H52.4835H52.6527H52.8219H52.9911H53.1603H53.3295H53.4987H53.6679H53.8372H54.0064H54.1751H54.3443H54.5135H54.6827H54.8519H55.0211L54.8519 16.4798L54.6827 18.2879L54.5135 20.096L54.3443 21.9048L54.1751 23.713L54.1667 23.807H54.0064H53.8372H53.6679H53.4987H53.3295H53.1603H52.9911H52.8219H52.6527H52.4835H52.3143H52.1451H51.9759H51.8067H51.638H51.4687H51.2995H51.1303H50.9611H50.7919H50.6227H50.4535H50.2843H50.1151H49.9459H49.7767H49.6075H49.4383H49.2695H49.1003H48.9311H48.7619H48.5927H48.4235H48.2543H48.0851H47.9159H47.7467H47.5775H47.4083H47.2396H47.0704H46.9011H46.7319H46.5627H46.3935H46.2243H46.0551H45.8859H45.7167H45.5475H45.3783H45.2091H45.0399H44.8711H44.7019H44.5327H44.3635H44.1943H44.0251H43.8559H43.6867H43.5175H43.3483H43.1791H43.0099H42.8412H42.672H42.5027H42.3335H42.1643H41.9951H41.8259H41.6567H41.4875H41.3183H41.1491H40.9799H40.8107H40.642H40.4728H40.3035H40.1343H39.9651H39.7959H39.6267H39.4575H39.2883H39.1191H38.9499H38.7807H38.6115H38.4423H38.2731H38.1043H37.9351H37.7659H37.5967H37.4275H37.2583H37.0891H36.9199H36.7507H36.5815H36.4123H36.2436H36.0744H35.9051H35.7359H35.5667H35.3975H35.2283H35.0591H34.8899H34.7256H34.7207H34.5515H34.3823H34.2131H34.0439H33.8752H33.706H33.589V14.6714Z" fill="#FFFFFE"/>
<path fill-rule="evenodd" clip-rule="evenodd" d="M33.5887 33.355H53.4383L52.7116 42.3875L33.5887 42.3363V33.355Z" fill="#FFFFFE"/>
<path fill-rule="evenodd" clip-rule="evenodd" d="M33.5887 57.233L43.276 54.2945L43.9335 42.2169L52.7372 42.0676L51.1586 61.6852L33.5887 67.229V67.2284V57.233Z" fill="#FFFFFE"/>
</g>
<defs>
<clipPath id="clip0">
<rect width="75.7732" height="81.9" fill="white"/>
</clipPath>
</defs>
</svg>
