<svg width="77" height="84" viewBox="0 0 77 84" fill="none" xmlns="http://www.w3.org/2000/svg">
<path d="M5.75066 0C5.04292 0 4.51565 0.629183 4.57851 1.39798L10.5447 74.4026C10.6076 75.1716 11.2166 75.9697 11.8988 76.1763L37.2163 83.845C37.8984 84.0515 39.0141 84.0515 39.6963 83.8454L65.0908 76.1642C65.7728 75.9578 66.3827 75.1598 66.4454 74.391L72.4215 1.39798C72.4848 0.629183 71.9569 0 71.2492 0H5.75066ZM59.7156 16.7433C59.6593 17.4291 59.5618 18.6197 59.4989 19.3887L59.3418 21.3041C59.2785 22.0728 59.1884 23.1722 59.1409 23.7469C59.0935 24.3218 59.0485 24.7921 59.0402 24.7921C59.0323 24.7921 58.4465 24.7921 57.7389 24.7921H39.7867C39.0789 24.7921 38.4941 24.7921 38.4864 24.7921C38.4787 24.7921 37.8932 24.7921 37.1855 24.7921H27.7307C27.0229 24.7921 26.4957 25.4213 26.5585 26.1901L27.11 32.9151C27.1729 33.6837 27.8036 34.3131 28.5112 34.3131H37.1856C37.8934 34.3131 38.4787 34.3131 38.4865 34.3131C38.4944 34.3131 39.0792 34.3131 39.7868 34.3131H54.6969C55.4047 34.3131 56.4998 34.3131 57.1306 34.3131C57.7609 34.3131 58.2302 34.8743 58.1731 35.5601C58.1156 36.2459 58.0176 37.4368 57.9549 38.2055L56.1816 59.8864C56.1183 60.6554 56.0383 61.6377 56.0038 62.0695C55.9686 62.501 55.3821 63.0228 54.7001 63.2292L39.74 67.7544C39.058 67.9605 38.4915 68.1311 38.4808 68.1338C38.4703 68.1362 37.9039 67.9692 37.2216 67.763L22.2456 63.2296C21.5636 63.0232 20.9542 62.2252 20.8915 61.4562L19.9275 49.6527C19.8646 48.8837 20.3925 48.2545 21.1002 48.2545H22.467C23.1747 48.2545 24.3327 48.2545 25.0403 48.2545H27.0784C27.7862 48.2545 28.4163 48.8837 28.4796 49.6527L28.8577 54.2733C28.9206 55.0423 29.5307 55.8359 30.2141 56.0372L37.2192 58.1009C37.9021 58.3022 38.4637 58.467 38.4668 58.467C38.47 58.467 39.0313 58.3019 39.7145 58.1006L46.7322 56.0319C47.4151 55.8306 48.0259 55.0367 48.0892 54.2681L48.8502 45.0105C48.9135 44.2415 48.3862 43.6123 47.6785 43.6123H39.7868C39.0791 43.6123 38.4942 43.6123 38.4865 43.6123C38.4789 43.6123 37.8934 43.6123 37.1856 43.6123H20.7187C20.0109 43.6123 19.3808 42.983 19.3179 42.2143L17.4507 19.3889C17.3878 18.6199 17.2904 17.4296 17.234 16.7435C17.1782 16.0577 17.711 15.4964 18.4187 15.4964H37.1856C37.8934 15.4964 38.4787 15.4964 38.4865 15.4964C38.4944 15.4964 39.0792 15.4964 39.7868 15.4964H58.531C59.2386 15.4961 59.7717 16.0572 59.7156 16.7433Z" fill="#DD512A"/>
</svg>
