<svg width="76" height="82" viewBox="0 0 76 82" fill="none" xmlns="http://www.w3.org/2000/svg">
<g style="mix-blend-mode:luminosity" clip-path="url(#clip0_8:882)">
<path d="M5.12238 20.1637C-1.49449 30.4806 -0.670131 43.9034 4.38368 54.8665C4.504 55.1294 4.62992 55.3878 4.75421 55.6471C4.83339 55.8102 4.90814 55.9785 4.99057 56.1398C5.03686 56.2369 5.08921 56.3315 5.13772 56.4243C5.22412 56.5995 5.31199 56.7652 5.40164 56.936C5.55867 57.2361 5.71983 57.5345 5.88408 57.8328C5.9752 57.9967 6.06514 58.1607 6.15906 58.3245C6.34131 58.6438 6.52797 58.9605 6.71921 59.2751C6.79883 59.4097 6.87624 59.5442 6.95792 59.6741C7.2214 60.1009 7.49079 60.5268 7.76857 60.9448C7.7758 60.9552 7.78376 60.9666 7.79187 60.977C7.83581 61.0446 7.88461 61.1105 7.92899 61.1774C8.16918 61.5373 8.41748 61.8921 8.66769 62.2442C8.75999 62.3718 8.85362 62.5001 8.94636 62.6284C9.16989 62.9338 9.39769 63.2366 9.62918 63.5391C9.71587 63.6518 9.80272 63.7654 9.8903 63.8764C10.2008 64.273 10.5178 64.6684 10.8422 65.0561C10.8478 65.0632 10.8553 65.071 10.8614 65.0779C10.8745 65.0944 10.8861 65.1048 10.8978 65.1204C11.2141 65.4952 11.5374 65.8622 11.8653 66.2282C11.9668 66.3408 12.0709 66.4545 12.1751 66.5673C12.429 66.8439 12.6869 67.1155 12.9474 67.3887C13.0533 67.4972 13.1581 67.609 13.2632 67.7139C13.6114 68.0696 13.9629 68.4182 14.3215 68.7583C14.3278 68.7652 14.3322 68.7704 14.3383 68.773C14.399 68.832 14.4621 68.8885 14.5221 68.943C14.8384 69.2404 15.1598 69.5354 15.4836 69.8252C15.6156 69.9406 15.749 70.0551 15.8819 70.1695C16.1465 70.3995 16.4138 70.6258 16.6834 70.8486C16.8257 70.9665 16.9684 71.0846 17.1118 71.2026C17.4089 71.4386 17.7083 71.6734 18.011 71.9017C18.1214 71.9884 18.228 72.0715 18.3389 72.1541C18.3693 72.1774 18.3973 72.2018 18.4284 72.2242C18.7155 72.4375 19.0084 72.645 19.3014 72.8506C19.4273 72.9414 19.5525 73.0352 19.6796 73.1236C20.1293 73.4317 20.5855 73.7369 21.0467 74.0328C21.1723 74.1099 21.2985 74.1864 21.4245 74.2635C21.7634 74.4759 22.1045 74.6842 22.4507 74.888C22.6373 74.9972 22.8296 75.1004 23.0179 75.2045C23.2625 75.3442 23.5048 75.4846 23.7526 75.6182C23.8089 75.6494 23.8673 75.679 23.9229 75.7076C24.022 75.7596 24.1227 75.811 24.2231 75.8655C24.6076 76.065 24.9954 76.2601 25.3864 76.45C25.47 76.4898 25.5504 76.5298 25.6331 76.5689C26.0814 76.7813 26.5334 76.9868 26.9908 77.1822C27.1003 77.2298 27.2111 77.2757 27.3215 77.3236C27.7441 77.4997 28.1723 77.6739 28.6019 77.838C28.6566 77.8588 28.7091 77.8778 28.7629 77.8977C29.235 78.0773 29.7116 78.2429 30.1917 78.4052C30.3059 78.4417 30.4211 78.4817 30.5362 78.518C31.0247 78.6775 31.5069 78.8675 32.0114 78.9689C64.01 85.2992 73.3049 58.1071 73.3049 58.1071C65.4989 69.1406 51.6418 72.0516 38.5129 68.8107C38.0151 68.6893 37.5329 68.5211 37.0475 68.3649C36.9241 68.3251 36.8034 68.2853 36.6819 68.2445C36.2081 68.0866 35.7384 67.921 35.2711 67.7467C35.2071 67.7224 35.1424 67.6965 35.0772 67.671C34.6588 67.5115 34.2454 67.3433 33.8331 67.1705C33.7168 67.1203 33.6004 67.0726 33.4845 67.0222C33.0329 66.8288 32.584 66.6266 32.1413 66.416C32.0498 66.3742 31.9626 66.3301 31.8731 66.2866C31.4923 66.1 31.1156 65.9119 30.7394 65.7158C30.6315 65.6587 30.5227 65.6032 30.4124 65.5451C30.1181 65.3898 29.8263 65.2241 29.5361 65.0619C29.3415 64.9509 29.1436 64.8451 28.9514 64.7297C28.5963 64.5233 28.2478 64.309 27.9011 64.0905C27.7832 64.0185 27.6645 63.9498 27.5461 63.8761C27.0847 63.5813 26.629 63.2759 26.1781 62.9662C26.0538 62.8805 25.9318 62.7885 25.8092 62.7001C25.4821 62.471 25.1563 62.2386 24.836 61.9974C24.7297 61.9211 24.6267 61.8361 24.5223 61.7589C24.2123 61.5221 23.9062 61.2811 23.6019 61.0373C23.4644 60.9271 23.3281 60.8125 23.1942 60.7023C22.9156 60.4709 22.6382 60.2384 22.364 59.998C22.2404 59.8913 22.1161 59.7838 21.9937 59.6762C21.6447 59.3649 21.3002 59.0526 20.9596 58.7316C20.924 58.6969 20.8853 58.6639 20.8465 58.6284C20.4786 58.2772 20.1165 57.9171 19.7595 57.5554C19.6556 57.4479 19.5549 57.3438 19.4533 57.2353C19.1883 56.9631 18.9281 56.6871 18.6723 56.4053C18.5699 56.2943 18.4667 56.1841 18.366 56.074C18.0403 55.7114 17.7208 55.3454 17.4075 54.9733C17.3918 54.9551 17.3755 54.9386 17.3603 54.9186C17.0288 54.5256 16.705 54.1241 16.388 53.7181C16.3021 53.6071 16.2186 53.4996 16.1334 53.3902C15.8972 53.0813 15.6629 52.7681 15.4342 52.4517C15.3478 52.3389 15.262 52.2217 15.1771 52.1055C14.9021 51.7178 14.6327 51.332 14.3688 50.938C7.07927 40.1529 4.4605 25.2753 10.2862 13.0571" fill="#F3F2F0"/>
<path d="M25.6616 11.4715C20.8764 18.9424 21.1364 28.9416 24.8689 36.8429C25.495 38.1673 26.1986 39.452 26.9857 40.6759C27.7024 41.7905 28.4968 43.1167 29.4481 44.0117C29.7936 44.4237 30.1538 44.8262 30.522 45.221C30.6152 45.3251 30.7103 45.4232 30.8054 45.5254C31.1623 45.9002 31.5261 46.2705 31.9019 46.6296C31.9174 46.6435 31.9311 46.6598 31.9467 46.6712C31.9507 46.6763 31.9547 46.6782 31.957 46.6834C32.3728 47.0781 32.8021 47.4588 33.2382 47.8327C33.3349 47.9125 33.4309 47.9966 33.5288 48.079C33.9657 48.4424 34.4116 48.8008 34.8688 49.1408C34.8823 49.1511 34.894 49.1616 34.9076 49.1738C35.1091 49.3238 35.3149 49.4651 35.5189 49.6102C35.6172 49.6796 35.7104 49.7533 35.8092 49.8183C36.1353 50.0448 36.4661 50.266 36.8022 50.4784C36.8497 50.5106 36.8966 50.5365 36.9426 50.5661C37.2323 50.7473 37.5262 50.926 37.8209 51.0986C37.9237 51.1619 38.0284 51.2165 38.1332 51.2755C38.3367 51.391 38.5402 51.5079 38.7476 51.6207C38.7775 51.6364 38.81 51.6519 38.8399 51.6658C39.2616 51.8912 39.6874 52.1083 40.1215 52.3129C40.2139 52.357 40.3098 52.3968 40.4046 52.4394C40.7512 52.599 41.1022 52.7553 41.454 52.9018C41.6035 52.9634 41.7546 53.0215 41.9041 53.0815C42.2235 53.2099 42.545 53.3276 42.8684 53.4457C43.0147 53.4959 43.1581 53.5481 43.3045 53.5965C43.7646 53.7509 44.2191 53.9469 44.6988 54.0336C69.4046 58.4747 75.1088 37.8375 75.1088 37.8375C69.9666 45.8695 60.0097 49.7044 49.3844 46.7118C48.9127 46.5775 48.4477 46.4308 47.9858 46.2729C47.8442 46.2262 47.7052 46.1758 47.5651 46.1254C47.2364 46.0101 46.9098 45.8871 46.5861 45.7596C46.4377 45.7013 46.2897 45.6425 46.1443 45.5817C45.7893 45.4334 45.4386 45.2807 45.0908 45.1202C44.996 45.0761 44.8997 45.0369 44.807 44.9902C44.3709 44.7846 43.9415 44.5669 43.5177 44.3414C43.2998 44.2249 43.086 44.1029 42.8718 43.984C42.7478 43.9138 42.623 43.8444 42.4987 43.7749C42.2233 43.6126 41.9503 43.4453 41.6804 43.2744C41.6169 43.2346 41.5501 43.1973 41.4854 43.1546C41.1505 42.9422 40.821 42.7237 40.4947 42.4989C40.394 42.4287 40.2973 42.3532 40.1965 42.282C39.9811 42.1304 39.766 41.9768 39.5549 41.8215C39.0996 41.4816 38.6562 41.1242 38.2196 40.7616C38.1189 40.6757 38.0178 40.5916 37.919 40.5057C33.2677 36.5217 29.582 31.0771 27.8293 24.9047C25.9925 18.5016 26.3879 11.316 29.5704 5.48364" fill="#F3F2F0"/>
<path d="M42.9359 4.9774C40.1151 9.48094 39.8381 15.074 41.7954 20.0484C43.8593 25.3283 48.0889 29.4701 53.026 31.433C53.2294 31.5154 53.4325 31.5892 53.6392 31.6647C53.729 31.695 53.8182 31.728 53.9093 31.7566C54.2001 31.8563 54.4891 31.9718 54.7897 32.0332C68.4313 34.893 72.1314 24.4383 73.1165 22.8994C69.8748 27.9624 64.4283 29.1777 57.7448 27.4186C57.2166 27.278 56.6362 27.0717 56.1276 26.8756C55.4752 26.624 54.8325 26.336 54.2073 26.0108C53.0208 25.3923 51.8898 24.6412 50.8404 23.7824C44.8603 18.8591 41.1446 9.46783 45.0471 1.81897" fill="#F3F2F0"/>
</g>
<defs>
<clipPath id="clip0_8:882">
<rect width="75.4917" height="81.9" fill="white" transform="translate(0.0623779)"/>
</clipPath>
</defs>
</svg>
