<svg xmlns="http://www.w3.org/2000/svg" viewBox="0 0 333333 330253" shape-rendering="geometricPrecision"
     text-rendering="geometricPrecision" image-rendering="optimizeQuality" fill-rule="evenodd" clip-rule="evenodd">
    <defs>
        <style>.fil0{fill:#21609b}</style>
    </defs>
    <g id="Layer_x0020_1">
        <g id="_554128104">
            <path class="fil0"
                  d="M325593 245125l-1492 3867c-25423 49510-70476 79884-134735 81224-30040 620-58663-7089-77361-15469-40350-18130-74291-51752-92826-87674-26589-51496-31384-123130 23901-176633 854 0-6707 11602-5853 11602l-1522 4951c-39838 124726 82902 231614 202216 219389 28674-2940 65239-18643 87670-41256m0 0z"/>
            <path class="fil0"
                  d="M253392 193551c30018 204 61372-13825 79940-33521-16244 41233-63280 67737-126351 59308-52813-7066-103121-60210-108302-113461-3789-38755 9717-61884 31974-89942-7734 14675-10626 25991-11346 33209-8455 83833 66969 143965 134086 144407m0 0z"/>
            <path class="fil0"
                  d="M330314 89424c-4665 10704-31532 30916-43398 33443-46983 10010-77071-12270-92833-37622-2342-3785-6673-14126-7448-16757-6113-20784-3304-52220 14931-68491-5493 15473-6294 33444-3403 45127 1752 7063 7089 19396 12430 27153 9716 14129 15881 17562 28362 25067 5623 3378 11654 6087 14259 6829 11835 3485 36824 12663 77104-14749m-4 0z"/>
        </g>
    </g>
</svg>