<svg width="76" height="82" viewBox="0 0 76 82" fill="none" xmlns="http://www.w3.org/2000/svg">
<g style="mix-blend-mode:luminosity" clip-path="url(#clip0)">
<path d="M5.07892 20.1637C-1.56263 30.4805 -0.735191 43.9033 4.33747 54.8664C4.45823 55.1294 4.58462 55.3877 4.70938 55.647C4.78885 55.8102 4.86388 55.9784 4.94661 56.1397C4.99308 56.2368 5.04562 56.3315 5.09431 56.4243C5.18104 56.5994 5.26924 56.7651 5.35922 56.936C5.51684 57.236 5.67859 57.5344 5.84346 57.8327C5.93492 57.9967 6.0252 58.1606 6.11947 58.3244C6.30239 58.6437 6.48975 58.9604 6.6817 59.2751C6.76162 59.4096 6.83931 59.5441 6.9213 59.674C7.18577 60.1008 7.45616 60.5268 7.73498 60.9447C7.74223 60.9551 7.75022 60.9665 7.75836 60.9769C7.80246 61.0446 7.85145 61.1105 7.896 61.1773C8.13708 61.5372 8.3863 61.892 8.63745 62.2441C8.73009 62.3718 8.82407 62.5 8.91716 62.6283C9.14152 62.9337 9.37017 63.2365 9.60252 63.539C9.68954 63.6518 9.77671 63.7653 9.86462 63.8763C10.1763 64.2729 10.4945 64.6683 10.8201 65.0561C10.8257 65.0631 10.8332 65.0709 10.8393 65.0778C10.8525 65.0943 10.8642 65.1047 10.8759 65.1204C11.1933 65.4951 11.5179 65.8621 11.847 66.2281C11.9488 66.3407 12.0533 66.4544 12.1579 66.5672C12.4128 66.8438 12.6716 67.1154 12.9331 67.3886C13.0394 67.4971 13.1446 67.6089 13.2501 67.7138C13.5996 68.0696 13.9524 68.4181 14.3123 68.7582C14.3187 68.7651 14.3231 68.7704 14.3292 68.7729C14.3901 68.8319 14.4535 68.8884 14.5137 68.943C14.8312 69.2403 15.1538 69.5353 15.4788 69.8251C15.6112 69.9405 15.7452 70.055 15.8785 70.1694C16.1442 70.3994 16.4125 70.6257 16.683 70.8486C16.8258 70.9665 16.9691 71.0845 17.1131 71.2026C17.4113 71.4385 17.7117 71.6733 18.0156 71.9016C18.1264 71.9883 18.2334 72.0715 18.3447 72.154C18.3752 72.1774 18.4033 72.2017 18.4345 72.2241C18.7227 72.4375 19.0167 72.6449 19.3108 72.8505C19.4372 72.9413 19.5628 73.0351 19.6904 73.1235C20.1418 73.4316 20.5997 73.7368 21.0626 74.0327C21.1887 74.1098 21.3154 74.1863 21.4418 74.2634C21.782 74.4758 22.1243 74.6841 22.4718 74.8879C22.6592 74.9972 22.8522 75.1003 23.0412 75.2045C23.2867 75.3441 23.5298 75.4846 23.7786 75.6181C23.8352 75.6493 23.8938 75.6789 23.9496 75.7075C24.049 75.7595 24.1501 75.8109 24.2509 75.8654C24.6368 76.0649 25.0261 76.26 25.4185 76.4499C25.5025 76.4897 25.5831 76.5297 25.6661 76.5688C26.116 76.7812 26.5698 76.9868 27.0289 77.1821C27.1388 77.2297 27.25 77.2756 27.3608 77.3235C27.785 77.4996 28.2148 77.6738 28.646 77.8379C28.7009 77.8587 28.7536 77.8777 28.8076 77.8976C29.2815 78.0772 29.7598 78.2428 30.2417 78.4051C30.3564 78.4416 30.472 78.4816 30.5875 78.5179C31.0779 78.6774 31.5618 78.8674 32.0682 78.9688C64.1861 85.2991 73.5157 58.107 73.5157 58.107C65.6806 69.1405 51.7718 72.0515 38.5939 68.8107C38.0943 68.6893 37.6103 68.521 37.1231 68.3649C36.9993 68.325 36.8781 68.2852 36.7561 68.2444C36.2806 68.0865 35.8091 67.921 35.3401 67.7466C35.2759 67.7223 35.2109 67.6964 35.1455 67.6709C34.7255 67.5115 34.3105 67.3432 33.8967 67.1704C33.7799 67.1202 33.6632 67.0725 33.5468 67.0221C33.0935 66.8288 32.6429 66.6266 32.1986 66.4159C32.1067 66.3741 32.0192 66.33 31.9294 66.2865C31.5471 66.1 31.169 65.9119 30.7915 65.7157C30.6832 65.6586 30.5739 65.6031 30.4632 65.5451C30.1678 65.3897 29.875 65.224 29.5837 65.0618C29.3883 64.9508 29.1897 64.8451 28.9968 64.7296C28.6404 64.5232 28.2905 64.3089 27.9426 64.0904C27.8242 64.0184 27.7051 63.9498 27.5862 63.876C27.1231 63.5812 26.6657 63.2759 26.2131 62.9662C26.0884 62.8804 25.966 62.7885 25.8428 62.7C25.5146 62.4709 25.1875 62.2385 24.8661 61.9973C24.7594 61.921 24.6559 61.836 24.5511 61.7588C24.2401 61.522 23.9328 61.281 23.6274 61.0372C23.4893 60.927 23.3525 60.8125 23.2182 60.7022C22.9385 60.4708 22.6601 60.2384 22.3848 59.9979C22.2608 59.8912 22.136 59.7837 22.0132 59.6761C21.6629 59.3648 21.317 59.0526 20.9752 58.7315C20.9395 58.6968 20.9006 58.6639 20.8616 58.6283C20.4924 58.2771 20.1289 57.917 19.7706 57.5553C19.6663 57.4478 19.5652 57.3437 19.4632 57.2353C19.1973 56.963 18.9361 56.6871 18.6793 56.4052C18.5766 56.2942 18.473 56.184 18.3719 56.0739C18.045 55.7113 17.7243 55.3453 17.4098 54.9732C17.3941 54.955 17.3777 54.9385 17.3625 54.9185C17.0298 54.5255 16.7048 54.124 16.3866 53.718C16.3003 53.607 16.2165 53.4995 16.131 53.3901C15.8939 53.0812 15.6588 52.768 15.4292 52.4516C15.3425 52.3388 15.2564 52.2216 15.1711 52.1055C14.8951 51.7177 14.6247 51.3319 14.3598 50.9379C7.0431 40.1529 4.41457 25.2752 10.262 13.0571" fill="#010101"/>
<path d="M25.6947 11.4715C20.8917 18.9424 21.1526 28.9416 24.8991 36.8429C25.5275 38.1673 26.2337 39.452 27.0237 40.6758C27.7431 41.7905 28.5405 43.1167 29.4954 44.0117C29.8421 44.4237 30.2037 44.8262 30.5732 45.221C30.6668 45.3251 30.7622 45.4232 30.8577 45.5254C31.216 45.9002 31.5811 46.2705 31.9583 46.6296C31.9739 46.6435 31.9876 46.6598 32.0033 46.6712C32.0073 46.6763 32.0113 46.6782 32.0137 46.6833C32.431 47.0781 32.8618 47.4588 33.2996 47.8327C33.3967 47.9125 33.493 47.9966 33.5913 48.079C34.0298 48.4424 34.4773 48.8007 34.9363 49.1408C34.9499 49.151 34.9616 49.1616 34.9752 49.1738C35.1775 49.3238 35.3841 49.4651 35.5888 49.6101C35.6875 49.6796 35.781 49.7533 35.8802 49.8182C36.2075 50.0448 36.5395 50.266 36.8769 50.4784C36.9246 50.5106 36.9716 50.5365 37.0178 50.5661C37.3086 50.7473 37.6036 50.926 37.8994 51.0986C38.0026 51.1619 38.1076 51.2165 38.2129 51.2755C38.4171 51.391 38.6213 51.5079 38.8295 51.6207C38.8596 51.6364 38.8921 51.6519 38.9222 51.6658C39.3455 51.8912 39.7729 52.1082 40.2086 52.3128C40.3014 52.357 40.3975 52.3968 40.4927 52.4394C40.8406 52.599 41.1929 52.7553 41.546 52.9018C41.6961 52.9634 41.8477 53.0215 41.9978 53.0815C42.3184 53.2099 42.6411 53.3276 42.9657 53.4457C43.1125 53.4959 43.2565 53.5481 43.4035 53.5965C43.8652 53.7509 44.3215 53.9468 44.8029 54.0335C69.6008 58.4747 75.3263 37.8375 75.3263 37.8375C70.165 45.8695 60.1709 49.7044 49.506 46.7118C49.0326 46.5774 48.5658 46.4308 48.1021 46.2729C47.9601 46.2262 47.8205 46.1758 47.6799 46.1254C47.35 46.0101 47.0222 45.887 46.6972 45.7596C46.5483 45.7013 46.3998 45.6425 46.2538 45.5817C45.8975 45.4334 45.5455 45.2806 45.1964 45.1202C45.1013 45.076 45.0046 45.0369 44.9115 44.9901C44.4738 44.7846 44.0428 44.5669 43.6175 44.3413C43.3987 44.2249 43.1841 44.1028 42.9691 43.984C42.8446 43.9138 42.7194 43.8443 42.5947 43.7749C42.3182 43.6126 42.0441 43.4452 41.7733 43.2744C41.7095 43.2346 41.6425 43.1973 41.5775 43.1546C41.2414 42.9422 40.9106 42.7237 40.5831 42.4989C40.482 42.4287 40.385 42.3532 40.2839 42.282C40.0677 42.1304 39.8517 41.9768 39.6398 41.8215C39.1828 41.4816 38.7378 41.1242 38.2996 40.7616C38.1985 40.6757 38.097 40.5915 37.9978 40.5056C33.3292 36.5217 29.6298 31.0771 27.8706 24.9047C26.0268 18.5016 26.4238 11.316 29.6181 5.48364" fill="#010101"/>
<path d="M43.0334 4.9774C40.2021 9.48094 39.924 15.074 41.8887 20.0484C43.9603 25.3283 48.2057 29.4701 53.1611 31.433C53.3653 31.5154 53.5691 31.5891 53.7766 31.6646C53.8668 31.695 53.9563 31.728 54.0477 31.7566C54.3396 31.8563 54.6297 31.9718 54.9314 32.0332C68.6239 34.893 72.3378 24.4382 73.3266 22.8994C70.0728 27.9623 64.606 29.1777 57.8975 27.4186C57.3674 27.278 56.7848 27.0717 56.2743 26.8756C55.6195 26.624 54.9743 26.336 54.3468 26.0108C53.1559 25.3923 52.0207 24.6412 50.9674 23.7824C44.965 18.8591 41.2354 9.46782 45.1525 1.81897" fill="#010101"/>
</g>
<defs>
<clipPath id="clip0">
<rect width="75.7732" height="81.9" fill="white"/>
</clipPath>
</defs>
</svg>
