<svg width="72" height="77" viewBox="0 0 72 77" fill="none" xmlns="http://www.w3.org/2000/svg">
<g clip-path="url(#clip0)">
<path d="M71.134 0H0V76.8857H71.134V0Z" fill="#F7DF1E"/>
<path d="M47.784 60.0673C49.2168 62.596 51.081 64.4547 54.378 64.4547C57.1477 64.4547 58.917 62.9584 58.917 60.8911C58.917 58.4136 57.0992 57.5362 54.0506 56.0949L52.3795 55.3199C47.5559 53.0988 44.3515 50.3162 44.3515 44.4339C44.3515 39.0152 48.1713 34.8903 54.1409 34.8903C58.3909 34.8903 61.4462 36.489 63.648 40.675L58.4428 44.2874C57.2967 42.0663 56.0604 41.1912 54.1409 41.1912C52.183 41.1912 50.9421 42.5337 50.9421 44.2874C50.9421 46.4548 52.1841 47.3323 55.0521 48.6748L56.7232 49.4485C62.4026 52.0809 65.6093 54.7646 65.6093 60.7983C65.6093 67.3031 60.8817 70.8667 54.5327 70.8667C48.3248 70.8667 44.3142 67.6692 42.3518 63.4783L47.784 60.0673ZM24.1709 60.6934C25.2209 62.707 26.1762 64.4095 28.4728 64.4095C30.6689 64.4095 32.0543 63.4808 32.0543 59.8696V35.3028H38.7387V59.9672C38.7387 67.4483 34.6806 70.8533 28.7573 70.8533C23.4053 70.8533 20.3059 67.8596 18.7297 64.2539L24.1709 60.6934Z" fill="#010101"/>
</g>
<defs>
<clipPath id="clip0">
<rect width="71.134" height="76.8857" fill="white"/>
</clipPath>
</defs>
</svg>
