<svg width="72" height="77" viewBox="0 0 72 77" fill="none" xmlns="http://www.w3.org/2000/svg">
<g style="mix-blend-mode:luminosity" clip-path="url(#clip0_8:243)">
<path d="M71.134 0H0V76.8857H71.134V0Z" fill="#F7DF1E"/>
<path d="M47.784 60.0672C49.2168 62.5958 51.081 64.4545 54.378 64.4545C57.1477 64.4545 58.917 62.9583 58.917 60.8909C58.917 58.4135 57.0991 57.536 54.0505 56.0947L52.3795 55.3198C47.5559 53.0986 44.3515 50.3161 44.3515 44.4337C44.3515 39.0151 48.1713 34.8901 54.1409 34.8901C58.3909 34.8901 61.4462 36.4889 63.648 40.6749L58.4428 44.2873C57.2967 42.0661 56.0604 41.1911 54.1409 41.1911C52.183 41.1911 50.9421 42.5336 50.9421 44.2873C50.9421 46.4547 52.1841 47.3322 55.0521 48.6746L56.7232 49.4484C62.4026 52.0808 65.6093 54.7645 65.6093 60.7982C65.6093 67.303 60.8817 70.8666 54.5327 70.8666C48.3248 70.8666 44.3142 67.6691 42.3518 63.4782L47.784 60.0672ZM24.1709 60.6932C25.2209 62.7069 26.1762 64.4094 28.4728 64.4094C30.6689 64.4094 32.0543 63.4806 32.0543 59.8695V35.3026H38.7387V59.9671C38.7387 67.4482 34.6806 70.8531 28.7573 70.8531C23.4053 70.8531 20.3059 67.8595 18.7297 64.2538L24.1709 60.6932Z" fill="#F3F2F0"/>
</g>
<defs>
<clipPath id="clip0_8:243">
<rect width="71.134" height="76.8857" fill="white"/>
</clipPath>
</defs>
</svg>
