<svg width="105" height="55" viewBox="0 0 105 55" fill="none" xmlns="http://www.w3.org/2000/svg">
<g style="mix-blend-mode:luminosity" clip-path="url(#clip0_8:215)">
<path d="M52.5002 54.837C81.4952 54.837 105 42.5613 105 27.4185C105 12.2757 81.4952 0 52.5002 0C23.5053 0 0.000244141 12.2757 0.000244141 27.4185C0.000244141 42.5613 23.5053 54.837 52.5002 54.837Z" fill="url(#paint0_radial_8:215)"/>
<path d="M52.5002 52.8001C80.3626 52.8001 102.949 41.4364 102.949 27.4186C102.949 13.4008 80.3626 2.03711 52.5002 2.03711C24.6379 2.03711 2.05103 13.4008 2.05103 27.4186C2.05103 41.4364 24.6379 52.8001 52.5002 52.8001Z" fill="#6181B6"/>
<path d="M62.7132 35.6482L65.2151 22.8556C65.7894 19.963 65.2972 17.8037 63.8206 16.4593C62.3851 15.1556 59.9241 14.5037 56.3147 14.5037H51.9671L53.1976 8.14819C53.2386 7.90374 53.1976 7.6593 53.0335 7.45559C52.8694 7.25189 52.6644 7.17041 52.4183 7.17041H46.43C46.0198 7.17041 45.6917 7.4556 45.6097 7.82226L42.9436 21.3889C42.6976 19.8408 42.1233 18.5371 41.139 17.4778C39.3753 15.4815 36.6272 14.463 32.8948 14.463H21.3694C20.9593 14.463 20.6312 14.7482 20.5491 15.1149L15.1761 42.6556C15.1351 42.9 15.1761 43.1445 15.3401 43.3482C15.5042 43.5519 15.7093 43.6334 15.9554 43.6334H21.9847C22.3948 43.6334 22.723 43.3482 22.805 42.9815L24.1175 36.3408H28.5882C30.9261 36.3408 32.9358 36.0963 34.4534 35.6075C36.053 35.0778 37.4886 34.2223 38.7601 33.0408C39.7854 32.1037 40.6468 31.0445 41.303 29.9037L40.2366 35.4037C40.1956 35.6482 40.2366 35.8926 40.4007 36.0963C40.5647 36.3 40.7698 36.3815 41.0159 36.3815H47.0042C47.4144 36.3815 47.7425 36.0963 47.8245 35.7297L50.7776 20.6556H54.8792C56.6429 20.6556 57.1351 20.9815 57.2991 21.1445C57.4222 21.2667 57.6683 21.7556 57.3811 23.263L55.0022 35.4445C54.9612 35.6889 55.0022 35.9334 55.1663 36.1371C55.3304 36.3408 55.5354 36.4223 55.7815 36.4223H61.9339C62.303 36.3 62.6311 36.0149 62.7132 35.6482ZM34.9866 25.0556C34.6175 26.9704 33.9202 28.3556 32.8948 29.1297C31.8694 29.9037 30.1878 30.3112 27.973 30.3112H25.3069L27.2347 20.4519H30.68C33.223 20.4519 34.2483 20.9815 34.6585 21.4297C35.1917 22.0815 35.3147 23.3445 34.9866 25.0556Z" fill="#F3F2F0"/>
<path d="M88.3069 17.4777C86.5433 15.4814 83.7952 14.4629 80.0628 14.4629H68.4554C68.0452 14.4629 67.7171 14.7481 67.6351 15.1147L62.262 42.6147C62.221 42.8592 62.262 43.1036 62.4261 43.3073C62.5901 43.511 62.7952 43.5925 63.0413 43.5925H69.0706C69.4808 43.5925 69.8089 43.3073 69.8909 42.9407L71.2034 36.2999H75.6741C78.012 36.2999 80.0218 36.0555 81.5394 35.5666C83.139 35.037 84.5745 34.1814 85.846 32.9999C86.9124 32.0221 87.8148 30.9221 88.471 29.7407C89.1273 28.5592 89.6194 27.2555 89.9066 25.8296C90.6038 22.2851 90.0706 19.5147 88.3069 17.4777ZM82.0316 25.0555C81.6624 26.9703 80.9651 28.3555 79.9398 29.1296C78.9144 29.9036 77.2327 30.311 75.0179 30.311H72.3519L74.2796 20.4518H77.7249C80.2679 20.4518 81.2933 20.9814 81.7034 21.4296C82.2776 22.0814 82.4007 23.3444 82.0316 25.0555Z" fill="#F3F2F0"/>
<path d="M30.6799 19.6368C32.9768 19.6368 34.4944 20.0443 35.2737 20.8998C36.053 21.7554 36.217 23.1813 35.8069 25.2183C35.3967 27.3368 34.5764 28.885 33.387 29.7813C32.1975 30.6776 30.3928 31.1257 27.9729 31.1257H24.3225L26.5784 19.6368H30.6799ZM15.9963 42.7776H22.0256L23.4612 35.485H28.6292C30.926 35.485 32.7717 35.2406 34.2483 34.7517C35.7249 34.2628 37.0374 33.4887 38.2678 32.348C39.2932 31.4109 40.1135 30.3924 40.7288 29.2924C41.344 28.1924 41.7952 26.9702 42.0413 25.6257C42.6975 22.3665 42.2053 19.8406 40.6057 18.0072C39.0061 16.1739 36.4631 15.2776 32.9768 15.2776H21.3694L15.9963 42.7776Z" fill="#F3F2F0"/>
<path d="M46.4709 7.98511H52.4592L51.0237 15.2777H56.3557C59.719 15.2777 62.0159 15.8481 63.2874 17.0296C64.5588 18.211 64.928 20.0851 64.4358 22.6925L61.9338 35.4851H55.8635L58.2424 23.3036C58.5295 21.9184 58.4065 20.9814 57.9553 20.4925C57.5042 20.0036 56.4788 19.7184 54.9612 19.7184H50.1624L47.0862 35.4851H41.0979L46.4709 7.98511Z" fill="#F3F2F0"/>
<path d="M77.7249 19.6368C80.0217 19.6368 81.5393 20.0443 82.3186 20.8998C83.0979 21.7554 83.262 23.1813 82.8518 25.2183C82.4417 27.3368 81.6213 28.885 80.4319 29.7813C79.2424 30.6776 77.4377 31.1257 75.0178 31.1257H71.3674L73.6233 19.6368H77.7249ZM63.0413 42.7776H69.0706L70.5061 35.485H75.6741C77.971 35.485 79.8167 35.2406 81.2932 34.7517C82.7698 34.2628 84.0823 33.4887 85.3127 32.348C86.3381 31.4109 87.1585 30.3924 87.7737 29.2924C88.3889 28.1924 88.8401 26.9702 89.0862 25.6257C89.7424 22.3665 89.2502 19.8406 87.6506 18.0072C86.051 16.1739 83.5081 15.2776 80.0217 15.2776H68.4143L63.0413 42.7776Z" fill="#F3F2F0"/>
</g>
<defs>
<radialGradient id="paint0_radial_8:215" cx="0" cy="0" r="1" gradientUnits="userSpaceOnUse" gradientTransform="translate(31.5215 9.6424) scale(68.9453 68.4832)">
<stop stop-color="white"/>
<stop offset="0.5" stop-color="#4C6B97"/>
<stop offset="1" stop-color="#231F20"/>
</radialGradient>
<clipPath id="clip0_8:215">
<rect width="105" height="55" fill="white" transform="translate(0.000244141)"/>
</clipPath>
</defs>
</svg>
