<svg width="105" height="55" viewBox="0 0 105 55" fill="none" xmlns="http://www.w3.org/2000/svg">
<g style="mix-blend-mode:luminosity" clip-path="url(#clip0)">
<path d="M52.5002 54.8371C81.4952 54.8371 105 42.5614 105 27.4186C105 12.2758 81.4952 6.10352e-05 52.5002 6.10352e-05C23.5053 6.10352e-05 0.000244141 12.2758 0.000244141 27.4186C0.000244141 42.5614 23.5053 54.8371 52.5002 54.8371Z" fill="url(#paint0_radial)"/>
<path d="M52.5002 52.8001C80.3626 52.8001 102.949 41.4364 102.949 27.4186C102.949 13.4008 80.3626 2.03711 52.5002 2.03711C24.6379 2.03711 2.05103 13.4008 2.05103 27.4186C2.05103 41.4364 24.6379 52.8001 52.5002 52.8001Z" fill="#6181B6"/>
<path d="M62.7132 35.6483L65.2151 22.8557C65.7894 19.9631 65.2972 17.8038 63.8206 16.4594C62.3851 15.1557 59.9241 14.5038 56.3147 14.5038H51.9671L53.1976 8.14825C53.2386 7.9038 53.1976 7.65936 53.0335 7.45566C52.8694 7.25195 52.6644 7.17047 52.4183 7.17047H46.43C46.0198 7.17047 45.6917 7.45566 45.6097 7.82232L42.9436 21.389C42.6976 19.8408 42.1233 18.5371 41.139 17.4779C39.3753 15.4816 36.6272 14.4631 32.8948 14.4631H21.3694C20.9593 14.4631 20.6312 14.7482 20.5491 15.1149L15.1761 42.6557C15.1351 42.9001 15.1761 43.1446 15.3401 43.3483C15.5042 43.552 15.7093 43.6334 15.9554 43.6334H21.9847C22.3948 43.6334 22.723 43.3483 22.805 42.9816L24.1175 36.3408H28.5882C30.9261 36.3408 32.9358 36.0964 34.4534 35.6075C36.053 35.0779 37.4886 34.2223 38.7601 33.0408C39.7854 32.1038 40.6468 31.0445 41.303 29.9038L40.2366 35.4038C40.1956 35.6483 40.2366 35.8927 40.4007 36.0964C40.5647 36.3001 40.7698 36.3816 41.0159 36.3816H47.0042C47.4144 36.3816 47.7425 36.0964 47.8245 35.7297L50.7776 20.6557H54.8792C56.6429 20.6557 57.1351 20.9816 57.2991 21.1445C57.4222 21.2668 57.6683 21.7557 57.3811 23.2631L55.0022 35.4445C54.9612 35.689 55.0022 35.9334 55.1663 36.1371C55.3304 36.3408 55.5354 36.4223 55.7815 36.4223H61.9339C62.303 36.3001 62.6311 36.0149 62.7132 35.6483ZM34.9866 25.0557C34.6175 26.9705 33.9202 28.3557 32.8948 29.1297C31.8694 29.9038 30.1878 30.3112 27.973 30.3112H25.3069L27.2347 20.452H30.68C33.223 20.452 34.2483 20.9816 34.6585 21.4297C35.1917 22.0816 35.3147 23.3445 34.9866 25.0557Z" fill="white"/>
<path d="M88.3069 17.4779C86.5433 15.4816 83.7952 14.4631 80.0628 14.4631H68.4554C68.0452 14.4631 67.7171 14.7483 67.6351 15.1149L62.262 42.6149C62.221 42.8594 62.262 43.1038 62.4261 43.3075C62.5901 43.5112 62.7952 43.5927 63.0413 43.5927H69.0706C69.4808 43.5927 69.8089 43.3075 69.8909 42.9408L71.2034 36.3001H75.6741C78.012 36.3001 80.0218 36.0557 81.5394 35.5668C83.139 35.0371 84.5745 34.1816 85.846 33.0001C86.9124 32.0223 87.8148 30.9223 88.471 29.7409C89.1273 28.5594 89.6194 27.2557 89.9066 25.8297C90.6038 22.2853 90.0706 19.5149 88.3069 17.4779ZM82.0316 25.0557C81.6624 26.9705 80.9651 28.3557 79.9398 29.1297C78.9144 29.9038 77.2327 30.3112 75.0179 30.3112H72.3519L74.2796 20.452H77.7249C80.2679 20.452 81.2933 20.9816 81.7034 21.4297C82.2776 22.0816 82.4007 23.3446 82.0316 25.0557Z" fill="white"/>
<path d="M30.6799 19.6371C32.9768 19.6371 34.4944 20.0445 35.2737 20.9001C36.053 21.7556 36.217 23.1815 35.8069 25.2186C35.3967 27.3371 34.5764 28.8852 33.387 29.7815C32.1975 30.6778 30.3928 31.126 27.9729 31.126H24.3225L26.5784 19.6371H30.6799ZM15.9963 42.7778H22.0256L23.4612 35.4852H28.6292C30.926 35.4852 32.7717 35.2408 34.2483 34.7519C35.7249 34.263 37.0374 33.4889 38.2678 32.3482C39.2932 31.4112 40.1135 30.3926 40.7288 29.2926C41.344 28.1926 41.7952 26.9704 42.0413 25.626C42.6975 22.3667 42.2053 19.8408 40.6057 18.0075C39.0061 16.1741 36.4631 15.2778 32.9768 15.2778H21.3694L15.9963 42.7778Z" fill="#010101"/>
<path d="M46.4709 7.98523H52.4592L51.0237 15.2778H56.3557C59.719 15.2778 62.0159 15.8482 63.2874 17.0297C64.5588 18.2112 64.928 20.0852 64.4358 22.6926L61.9338 35.4852H55.8635L58.2424 23.3037C58.5295 21.9186 58.4065 20.9815 57.9553 20.4926C57.5042 20.0037 56.4788 19.7186 54.9612 19.7186H50.1624L47.0862 35.4852H41.0979L46.4709 7.98523Z" fill="#010101"/>
<path d="M77.7249 19.6371C80.0217 19.6371 81.5393 20.0445 82.3186 20.9001C83.0979 21.7556 83.262 23.1815 82.8518 25.2186C82.4417 27.3371 81.6213 28.8852 80.4319 29.7815C79.2424 30.6778 77.4377 31.126 75.0178 31.126H71.3674L73.6233 19.6371H77.7249ZM63.0413 42.7778H69.0706L70.5061 35.4852H75.6741C77.971 35.4852 79.8167 35.2408 81.2932 34.7519C82.7698 34.263 84.0823 33.4889 85.3127 32.3482C86.3381 31.4112 87.1585 30.3926 87.7737 29.2926C88.3889 28.1926 88.8401 26.9704 89.0862 25.626C89.7424 22.3667 89.2502 19.8408 87.6506 18.0075C86.051 16.1741 83.5081 15.2778 80.0217 15.2778H68.4143L63.0413 42.7778Z" fill="#010101"/>
</g>
<defs>
<radialGradient id="paint0_radial" cx="0" cy="0" r="1" gradientUnits="userSpaceOnUse" gradientTransform="translate(31.5215 9.64246) scale(68.9453 68.4832)">
<stop stop-color="white"/>
<stop offset="0.5" stop-color="#4C6B97"/>
<stop offset="1" stop-color="#231F20"/>
</radialGradient>
<clipPath id="clip0">
<rect width="105" height="55" fill="white" transform="translate(0.000244141)"/>
</clipPath>
</defs>
</svg>
