<svg width="74" height="74" viewBox="0 0 74 74" fill="none" xmlns="http://www.w3.org/2000/svg">
<g style="mix-blend-mode:luminosity" clip-path="url(#clip0_8:202)">
<path fill-rule="evenodd" clip-rule="evenodd" d="M36.9979 5.18357C45.2971 5.18357 52.8536 8.36386 58.5179 13.5708C55.7416 13.4963 52.971 15.1466 52.8564 18.9257C52.6229 26.5656 61.9919 28.193 56.9435 43.5602L52.7676 56.2713L41.3945 22.7693C41.2183 22.2507 41.4231 21.9556 42.0606 21.9556H45.276C45.4431 21.9556 45.5797 21.8129 45.5797 21.6382V19.7337C45.5797 19.5591 45.4428 19.4092 45.276 19.4164C39.1869 19.6827 33.1336 19.6845 27.1168 19.4164C26.9492 19.4092 26.8131 19.5596 26.8131 19.7344V21.6389C26.8131 21.8134 26.9498 21.9563 27.1168 21.9563H30.3498C31.069 21.9563 31.2703 22.1959 31.4399 22.6595L36.1129 35.4394L29.0833 56.6658L17.5282 22.6308C17.385 22.2039 17.5583 21.9561 17.9695 21.9561H21.6533C21.8204 21.9561 21.957 21.8134 21.957 21.6387V19.7342C21.957 19.5596 21.8199 19.4081 21.6533 19.4169C17.7883 19.6222 13.9084 19.6635 10.2944 19.7006C15.9657 10.9642 25.8062 5.18294 36.996 5.18294L36.9959 5.18285L36.9979 5.18357ZM64.9788 21.8486C67.4235 26.3527 68.8116 31.5133 68.8116 36.9966C68.8116 49.0308 62.1251 59.505 52.2669 64.9115L62.1889 36.8089C63.726 32.4596 65.1529 26.5818 64.9781 21.8486H64.978H64.9788ZM47.6491 66.9802C44.3183 68.1649 40.7341 68.811 36.9979 68.811C33.779 68.811 30.6732 68.3311 27.745 67.4429L37.5459 39.356L47.6489 66.9816L47.6491 66.9802ZM23.3843 65.7568C12.6255 60.6544 5.18351 49.6934 5.18351 36.998C5.18351 32.2917 6.20729 27.8241 8.04219 23.8046L23.385 65.7573L23.385 65.7573L23.3843 65.7568ZM36.9969 2.1981C56.2119 2.1981 71.7954 17.7816 71.7954 36.9966C71.7954 56.2116 56.2119 71.795 36.9969 71.795C17.7819 71.795 2.19847 56.2116 2.19847 36.9966C2.19847 17.7816 17.7819 2.1981 36.9969 2.1981ZM36.9969 -0.00146484C57.4268 -0.00146484 73.9958 16.5676 73.9958 36.9974C73.9958 57.4272 57.4268 73.9963 36.9969 73.9963C16.5671 73.9963 -0.00195312 57.4272 -0.00195312 36.9974C-0.00195312 16.5676 16.5671 -0.00146484 36.9969 -0.00146484Z" fill="#3AC8E8"/>
</g>
<defs>
<clipPath id="clip0_8:202">
<rect width="74" height="74" fill="white"/>
</clipPath>
</defs>
</svg>
