<svg width="74" height="74" viewBox="0 0 74 74" fill="none" xmlns="http://www.w3.org/2000/svg">
<g style="mix-blend-mode:luminosity" clip-path="url(#clip0)">
<path fill-rule="evenodd" clip-rule="evenodd" d="M36.9979 5.1835C45.2971 5.1835 52.8536 8.3638 58.5179 13.5707C55.7416 13.4963 52.971 15.1466 52.8564 18.9257C52.6229 26.5656 61.9919 28.193 56.9435 43.5601L52.7676 56.2713L41.3945 22.7693C41.2183 22.2507 41.4231 21.9556 42.0606 21.9556H45.276C45.4431 21.9556 45.5797 21.8129 45.5797 21.6381V19.7337C45.5797 19.559 45.4428 19.4091 45.276 19.4163C39.1869 19.6826 33.1336 19.6844 27.1168 19.4163C26.9492 19.4092 26.8131 19.5596 26.8131 19.7344V21.6388C26.8131 21.8134 26.9498 21.9562 27.1168 21.9562H30.3498C31.069 21.9562 31.2703 22.1959 31.4399 22.6594L36.1129 35.4394L29.0833 56.6657L17.5282 22.6308C17.385 22.2039 17.5583 21.956 17.9695 21.956H21.6533C21.8204 21.956 21.957 21.8134 21.957 21.6386V19.7342C21.957 19.5595 21.8199 19.4081 21.6533 19.4168C17.7883 19.6221 13.9084 19.6634 10.2944 19.7005C15.9657 10.9641 25.8062 5.18287 36.996 5.18287L36.9959 5.18279L36.9979 5.1835ZM64.9788 21.8485C67.4235 26.3527 68.8116 31.5132 68.8116 36.9965C68.8116 49.0308 62.1251 59.505 52.2669 64.9115L62.1889 36.8088C63.726 32.4596 65.1529 26.5817 64.9781 21.8485H64.978H64.9788ZM47.6491 66.9801C44.3183 68.1648 40.7341 68.8109 36.9979 68.8109C33.779 68.8109 30.6732 68.331 27.745 67.4428L37.5459 39.3559L47.6489 66.9815L47.6491 66.9801ZM23.3843 65.7567C12.6255 60.6543 5.18351 49.6933 5.18351 36.9979C5.18351 32.2917 6.20729 27.8241 8.04219 23.8046L23.385 65.7573L23.385 65.7572L23.3843 65.7567ZM36.9969 2.19804C56.2119 2.19804 71.7954 17.7815 71.7954 36.9965C71.7954 56.2115 56.2119 71.795 36.9969 71.795C17.7819 71.795 2.19847 56.2115 2.19847 36.9965C2.19847 17.7815 17.7819 2.19804 36.9969 2.19804ZM36.9969 -0.00152588C57.4268 -0.00152588 73.9958 16.5675 73.9958 36.9974C73.9958 57.4272 57.4268 73.9962 36.9969 73.9962C16.5671 73.9962 -0.00195312 57.4272 -0.00195312 36.9974C-0.00195312 16.5675 16.5671 -0.00152588 36.9969 -0.00152588Z" fill="#3AC8E8"/>
</g>
<defs>
<clipPath id="clip0">
<rect width="74" height="74" fill="white"/>
</clipPath>
</defs>
</svg>
